<svg xmlns="http://www.w3.org/2000/svg" width="665" height="121" viewBox="0 0 665 121" fill="none">
    <path d="M156.922 9.0731H189.953C211.071 9.0731 228.398 21.3512 228.398 49.2757V55.2517C228.398 83.2849 212.154 95.9976 190.494 95.9976H156.922V9.0731ZM175.441 24.8282V80.0252H189.628C201.541 80.0252 209.663 72.0934 209.663 54.7085V50.1449C209.663 32.76 201.324 24.8282 188.978 24.8282H175.441ZM238.254 25.6974H252.982L255.256 41.9958C258.072 30.8042 265.22 25.0455 278.215 25.0455H282.764V43.7342H275.183C260.13 43.7342 256.448 48.9497 256.448 63.8355V95.9976H238.254V25.6974ZM286.554 62.3144V60.3586C286.554 36.6716 301.608 24.0676 322.076 24.0676C342.978 24.0676 357.381 36.9976 357.381 60.3586V62.3144C357.381 85.458 343.194 97.7361 322.076 97.7361C299.442 97.8447 286.554 85.458 286.554 62.3144ZM338.862 62.097V60.3586C338.862 47.2112 332.256 39.4967 321.968 39.4967C311.788 39.4967 304.965 46.6679 304.965 60.3586V62.097C304.965 74.8098 311.355 81.8724 321.86 81.8724C332.364 81.8724 338.862 74.9184 338.862 62.097ZM367.02 25.6974H382.29L384.131 39.062C387.921 30.0436 395.719 24.0676 407.198 24.0676C425.067 24.0676 436.764 36.9976 436.764 60.6845V62.6403C436.764 85.784 423.768 97.8447 407.198 97.8447C396.044 97.8447 388.571 92.8466 384.889 84.6974V120.119H367.02V25.6974ZM418.245 62.2057V60.5759C418.245 46.5593 411.097 39.6053 401.458 39.6053C391.278 39.6053 384.456 47.4285 384.456 60.4672V61.8797C384.456 74.2665 391.062 82.0897 401.134 82.0897C411.53 82.0897 418.245 75.1357 418.245 62.2057ZM463.513 83.1762L462.105 95.9976H446.294V2.11914H464.163V38.1928C468.062 29.0657 475.859 24.0676 486.906 24.0676C503.583 24.1762 515.929 35.8024 515.929 59.1633V61.2278C515.929 84.5888 504.233 97.8447 486.364 97.8447C474.884 97.8447 467.304 92.1946 463.513 83.1762ZM497.627 61.2278V59.4893C497.627 46.5593 490.588 39.4967 480.841 39.4967C470.769 39.4967 463.838 47.6458 463.838 59.7066V61.1191C463.838 74.2665 470.553 81.8724 480.624 81.8724C491.129 81.981 497.627 75.1357 497.627 61.2278ZM524.052 62.3144V60.3586C524.052 36.6716 538.997 24.0676 559.357 24.0676C580.258 24.0676 594.878 36.9976 594.878 60.3586V62.3144C594.878 85.458 580.583 97.7361 559.357 97.7361C536.831 97.8447 524.052 85.458 524.052 62.3144ZM576.468 62.097V60.3586C576.468 47.2112 569.862 39.4967 559.573 39.4967C549.393 39.4967 542.571 46.6679 542.571 60.3586V62.097C542.571 74.8098 548.96 81.8724 559.465 81.8724C569.97 81.8724 576.468 74.9184 576.468 62.097ZM618.704 59.4893L594.12 25.5888H615.13L629.317 46.6679L643.613 25.5888H664.514L639.605 59.3807L665.922 95.9976H645.345L629.209 72.7453L613.506 95.9976H592.171L618.704 59.4893Z" fill="#1E1919"></path>
    <path d="M49.9959 0C20.1847 0 0 17.3824 0 49.5633V56.1258C0 89.5863 18.681 104.984 49.9224 104.984C79.9134 104.984 99.9918 89.3074 99.9918 56.1258V52.5H49.9959V0Z" fill="#0061FE"></path>
    <path d="M99.999 52.5V0H49.9949L99.999 52.5Z" fill="#1E1919"></path>
</svg>